<svg width="106" height="106" viewBox="0 0 106 106" fill="none" xmlns="http://www.w3.org/2000/svg">
<path fill-rule="evenodd" clip-rule="evenodd" d="M76.4286 3H29.5714C13.2381 3 3 14.5604 3 30.9258V75.0742C3 91.4396 13.1905 103 29.5714 103H76.4286C92.8095 103 103 91.4396 103 75.0742V30.9258C103 14.5604 92.8095 3 76.4286 3Z" fill="white" stroke="#141414" stroke-width="6" stroke-linecap="round" stroke-linejoin="round"/>
<path fill-rule="evenodd" clip-rule="evenodd" d="M68.5001 37.4968C69.9646 38.9613 69.9646 41.3356 68.5001 42.8001L42.8001 68.5001C41.3356 69.9646 38.9613 69.9646 37.4968 68.5001C36.0323 67.0356 36.0323 64.6613 37.4968 63.1968L63.1968 37.4968C64.6613 36.0323 67.0356 36.0323 68.5001 37.4968Z" fill="#141414"/>
<path fill-rule="evenodd" clip-rule="evenodd" d="M60.4768 65.5C60.4768 62.7386 62.7154 60.5 65.4768 60.5H65.5218C68.2832 60.5 70.5218 62.7386 70.5218 65.5C70.5218 68.2614 68.2832 70.5 65.5218 70.5H65.4768C62.7154 70.5 60.4768 68.2614 60.4768 65.5Z" fill="#141414"/>
<path fill-rule="evenodd" clip-rule="evenodd" d="M35.4768 40.5C35.4768 37.7386 37.7154 35.5 40.4768 35.5H40.5218C43.2832 35.5 45.5218 37.7386 45.5218 40.5C45.5218 43.2614 43.2832 45.5 40.5218 45.5H40.4768C37.7154 45.5 35.4768 43.2614 35.4768 40.5Z" fill="#141414"/>
</svg>
