<svg width="106" height="106" viewBox="0 0 106 106" fill="none" xmlns="http://www.w3.org/2000/svg">
<path d="M103 84.6414V50.694C103 47.4244 102.997 45.7887 102.591 44.2673C102.231 42.9191 101.64 41.6432 100.841 40.4902C99.9389 39.1891 98.6847 38.1102 96.1714 35.9572L66.1714 10.2577C61.5051 6.26032 59.1719 4.26263 56.5461 3.5024C54.2324 2.83253 51.7663 2.83253 49.4526 3.5024C46.8288 4.26206 44.4991 6.25786 39.8398 10.2492L9.82983 35.9572C7.3165 38.1102 6.06276 39.1891 5.16064 40.4902C4.3612 41.6432 3.76593 42.9191 3.40607 44.2673C3 45.7888 3 47.4244 3 50.694V84.6414C3 90.3435 3 93.1935 3.95151 95.4425C5.22018 98.4411 7.65199 100.826 10.7148 102.068C13.012 103 15.9241 103 21.7484 103C27.5727 103 30.488 103 32.7852 102.068C35.848 100.826 38.2792 98.4416 39.5479 95.443C40.4994 93.194 40.5 90.343 40.5 84.6409V78.5219C40.5 71.7632 46.0964 66.2841 53 66.2841C59.9036 66.2841 65.5 71.7632 65.5 78.5219V84.6409C65.5 90.343 65.5 93.194 66.4515 95.443C67.7202 98.4416 70.152 100.826 73.2148 102.068C75.512 103 78.4241 103 84.2484 103C90.0727 103 92.988 103 95.2852 102.068C98.348 100.826 100.779 98.4411 102.048 95.4424C102.999 93.1935 103 90.3435 103 84.6414Z" fill="white" stroke="#141414" stroke-width="6" stroke-linecap="round" stroke-linejoin="round"/>
</svg>
