<svg width="106" height="106" viewBox="0 0 106 106" fill="none" xmlns="http://www.w3.org/2000/svg">
<path fill-rule="evenodd" clip-rule="evenodd" d="M76.4286 3H29.5714C13.2381 3 3 14.5604 3 30.9258V75.0742C3 91.4396 13.1905 103 29.5714 103H76.4286C92.8095 103 103 91.4396 103 75.0742V30.9258C103 14.5604 92.8095 3 76.4286 3Z" stroke="white" stroke-width="5" stroke-linecap="round" stroke-linejoin="round"/>
<path d="M53 80.7049C54.4754 80.7049 55.6557 79.5246 55.6557 78.0492V49.5246C58.6721 48.4426 60.8689 45.5246 60.8689 42.1148C60.8689 38.7049 58.6721 35.7869 55.6557 34.7049V25.5246C55.6557 24.1803 54.4754 23 53 23C51.5246 23 50.377 24.1803 50.377 25.5246V34.6721C47.2951 35.7869 45.0984 38.7049 45.0984 42.1148C45.0984 45.5246 47.2951 48.4426 50.377 49.5246V78.0492C50.377 79.5246 51.5246 80.7049 53 80.7049ZM67.2623 61.0656C67.2623 64.4754 69.4262 67.3934 72.4754 68.4754V78.1803C72.4754 79.5246 73.6557 80.7049 75.1311 80.7049C76.6066 80.7049 77.7541 79.5246 77.7541 78.1803V68.4754C80.8033 67.3934 83 64.4754 83 61.0656C83 57.6557 80.8033 54.7049 77.7541 53.6229V25.6557C77.7541 24.1803 76.6066 23 75.1311 23C73.6557 23 72.4754 24.1803 72.4754 25.6557V53.6557C69.4262 54.7377 67.2623 57.6557 67.2623 61.0656ZM30.9016 80.7049C32.377 80.7049 33.5246 79.5246 33.5246 78.1803V68.4754C36.5738 67.3934 38.7705 64.4754 38.7705 61.0656C38.7705 57.6557 36.5738 54.7377 33.5246 53.6557V25.6557C33.5246 24.1803 32.377 23 30.9016 23C29.4262 23 28.2459 24.1803 28.2459 25.6557V53.6229C25.1967 54.7377 23 57.6557 23 61.0656C23 64.4754 25.1967 67.3934 28.2459 68.4754V78.1803C28.2459 79.5246 29.4262 80.7049 30.9016 80.7049ZM49.1639 42.1148C49.1639 39.9836 50.8689 38.2787 53 38.2787C55.1639 38.2787 56.8361 39.9836 56.8361 42.1148C56.8361 44.2787 55.1639 45.9508 53 45.9508C50.8689 45.9508 49.1639 44.2787 49.1639 42.1148ZM71.2951 61.0656C71.2951 58.9016 73 57.2295 75.1311 57.2295C77.3279 57.2295 78.9672 58.9016 78.9672 61.0656C78.9672 63.2295 77.3279 64.9016 75.1311 64.9016C73 64.9016 71.2951 63.2295 71.2951 61.0656ZM27.0328 61.0656C27.0328 58.9016 28.7377 57.2295 30.9016 57.2295C33.0656 57.2295 34.7377 58.9016 34.7377 61.0656C34.7377 63.2295 33.0656 64.9016 30.9016 64.9016C28.7377 64.9016 27.0328 63.2295 27.0328 61.0656Z" fill="white"/>
</svg>
